<svg xmlns="http://www.w3.org/2000/svg" width="101.774" height="42.199" viewBox="0 0 101.774 42.199">
  <path id="Tracé_3952" data-name="Tracé 3952" d="M302.183-1649.753a20.234,20.234,0,0,0-12.108,5.051,25.374,25.374,0,0,0-2.626,2.8,27.64,27.64,0,0,0-2.006,3.046c-.192.342-3.61,6.443-7.61,13.562s-7.335,13.082-7.418,13.266a3.139,3.139,0,0,0,1.374,4.1,2.958,2.958,0,0,0,3.5-.644c.268-.3,1.259-2.016,4.332-7.493,2.192-3.907,4-7.092,4.013-7.079s.109.328.217.7a22.475,22.475,0,0,0,2.268,5.037,20.508,20.508,0,0,0,13.476,9.444,16.537,16.537,0,0,0,3.866.329,16.408,16.408,0,0,0,4.307-.427,20.473,20.473,0,0,0,12.735-8.847,7.845,7.845,0,0,1,.524-.735,3.426,3.426,0,0,1,.326.479,21.693,21.693,0,0,0,3.176,3.895,20.358,20.358,0,0,0,11.712,5.556,30.277,30.277,0,0,0,4.875-.032,20.165,20.165,0,0,0,10.716-4.847,22.33,22.33,0,0,0,4.728-5.9c.192-.341,3.655-6.521,7.7-13.725s7.406-13.234,7.47-13.4a3.659,3.659,0,0,0,.051-1.951,2.97,2.97,0,0,0-1.649-1.937,2.051,2.051,0,0,0-1.061-.238,2.831,2.831,0,0,0-2.364.933c-.185.2-1.591,2.641-4.268,7.421-2.2,3.92-4.006,7.126-4.026,7.126a8.914,8.914,0,0,1-.371-1.064,20.862,20.862,0,0,0-11.9-12.984,20.258,20.258,0,0,0-15.527.145,20.786,20.786,0,0,0-9.042,7.6l-.562.848-.5-.762a20.364,20.364,0,0,0-5.642-5.766,19.809,19.809,0,0,0-10.256-3.513A12.948,12.948,0,0,0,302.183-1649.753Zm3.642,6.285a13.905,13.905,0,0,1,4.064,1.366,15.012,15.012,0,0,1,7.981,11.355,19.464,19.464,0,0,1,0,4.137,15.071,15.071,0,0,1-6.447,10.423,14.658,14.658,0,0,1-6.236,2.358,15.768,15.768,0,0,1-1.725.078,13.014,13.014,0,0,1-4.543-.742,14.561,14.561,0,0,1-6.786-4.827,15.271,15.271,0,0,1-2.882-6.141,12.479,12.479,0,0,1-.32-3.283,12.994,12.994,0,0,1,.409-3.579,13.907,13.907,0,0,1,1.68-4.058,14.553,14.553,0,0,1,10.812-7.2A20.85,20.85,0,0,1,305.825-1643.468Zm34.447-.092a14.616,14.616,0,0,1,11.29,8.156,14.845,14.845,0,0,1,1.546,6.679,14.111,14.111,0,0,1-.294,3.047,14.3,14.3,0,0,1-1.776,4.6,14.4,14.4,0,0,1-9.559,7.04,12.1,12.1,0,0,1-2.971.288,12.541,12.541,0,0,1-3.515-.446,14.88,14.88,0,0,1-10.869-12.649,13.783,13.783,0,0,1-.07-2.253,12.277,12.277,0,0,1,.434-3.369,14.961,14.961,0,0,1,8.939-10.232,17.031,17.031,0,0,1,3.1-.814c.32-.039.645-.085.735-.1A22.647,22.647,0,0,1,340.272-1643.56Z" transform="translate(-270.114 1649.813)" fill="#fff"/>
</svg>
